<svg width="1105" height="829" viewBox="0 0 1105 829" fill="none" xmlns="http://www.w3.org/2000/svg">
<path d="M0 50C0 22.3858 22.3858 0 50 0H552.5H828.75H895.75C914.113 0 929 14.8865 929 33.25V33.25C929 51.6135 943.887 66.5 962.25 66.5H1055C1082.61 66.5 1105 88.8858 1105 116.5V414.5V779C1105 806.614 1082.61 829 1055 829H878.75C851.136 829 828.75 806.614 828.75 779V766.5C828.75 738.886 806.364 716.5 778.75 716.5H690.625H552.5H326.25C298.636 716.5 276.25 738.886 276.25 766.5V779C276.25 806.614 253.864 829 226.25 829H50C22.3858 829 0 806.614 0 779V50Z" fill="#D9D9D9"/>
</svg>
