<svg width="466" height="1513" viewBox="0 0 466 1513" fill="none" xmlns="http://www.w3.org/2000/svg">
<g filter="url(#filter0_d_16_5)">
<path d="M217.728 478.667L218.436 479.989L218.436 479.989L217.728 478.667ZM217.728 995.333L218.531 994.066C218.508 994.051 218.485 994.038 218.461 994.024L217.728 995.333ZM312.5 1493C312.5 1497.42 316.082 1501 320.5 1501C324.918 1501 328.5 1497.42 328.5 1493C328.5 1488.58 324.918 1485 320.5 1485C316.082 1485 312.5 1488.58 312.5 1493ZM320.5 1.5C319.72 2.78143 319.721 2.78187 319.723 2.78318C319.726 2.78475 319.729 2.78691 319.734 2.79006C319.745 2.79635 319.761 2.80606 319.782 2.81916C319.825 2.84537 319.889 2.88518 319.975 2.93849C320.147 3.04512 320.404 3.20577 320.743 3.41968C321.419 3.8475 322.419 4.48837 323.704 5.33627C326.276 7.03212 329.993 9.55582 334.56 12.8593C343.694 19.4671 356.222 29.1904 369.787 41.6447C396.935 66.5708 428.141 102.351 444.67 145.902C461.174 189.387 463.074 240.672 431.557 296.823C399.999 353.045 334.868 414.269 217.021 477.344L218.436 479.989C336.533 416.78 402.221 355.215 434.173 298.291C466.165 241.294 464.264 189.073 447.475 144.838C430.711 100.669 399.13 64.5135 371.816 39.4348C358.149 26.8866 345.527 17.0901 336.318 10.4286C331.713 7.09749 327.961 4.5492 325.356 2.83172C324.054 1.97296 323.038 1.32183 322.346 0.884323C322.001 0.665568 321.736 0.500213 321.556 0.389007C321.467 0.333404 321.398 0.291337 321.352 0.262901C321.329 0.248683 321.311 0.237872 321.299 0.23048C321.293 0.226785 321.288 0.223807 321.285 0.221959C321.282 0.219839 321.28 0.218574 320.5 1.5ZM217.021 477.344C98.8985 540.567 39.5434 604.661 17.2421 665.432C-5.08299 726.268 9.8416 783.441 39.4863 832.489C69.1156 881.512 113.517 922.55 150.448 951.305C168.923 965.691 185.55 977.019 197.562 984.753C203.568 988.621 208.421 991.59 211.775 993.593C213.452 994.595 214.754 995.356 215.639 995.867C216.081 996.122 216.419 996.315 216.647 996.445C216.761 996.51 216.847 996.559 216.906 996.592C216.935 996.608 216.957 996.621 216.972 996.629C216.98 996.633 216.986 996.637 216.989 996.639C216.994 996.641 216.996 996.642 217.728 995.333C218.461 994.024 218.46 994.024 218.457 994.022C218.453 994.02 218.448 994.017 218.442 994.014C218.428 994.006 218.407 993.994 218.38 993.979C218.324 993.947 218.241 993.9 218.129 993.837C217.907 993.711 217.576 993.521 217.139 993.269C216.267 992.765 214.977 992.012 213.313 991.018C209.986 989.03 205.161 986.078 199.186 982.231C187.234 974.535 170.682 963.258 152.291 948.938C115.488 920.283 71.4107 879.51 42.0538 830.938C12.7124 782.391 -1.85606 726.183 20.0585 666.465C41.9968 606.683 100.614 543.051 218.436 479.989L217.021 477.344ZM217.728 995.333C216.926 996.601 216.928 996.602 216.931 996.604C216.934 996.606 216.939 996.609 216.946 996.613C216.959 996.622 216.979 996.634 217.006 996.652C217.06 996.686 217.142 996.738 217.25 996.807C217.466 996.946 217.79 997.154 218.215 997.429C219.065 997.981 220.324 998.803 221.952 999.886C225.208 1002.05 229.941 1005.26 235.841 1009.41C247.642 1017.72 264.109 1029.83 282.762 1045.01C320.081 1075.37 366.094 1117.98 401.017 1167.04C435.957 1216.11 459.658 1271.44 452.719 1327.3C445.79 1383.1 408.243 1439.85 319.742 1491.71L321.258 1494.29C410.257 1442.15 448.614 1384.7 455.696 1327.67C462.769 1270.73 438.59 1214.64 403.461 1165.3C368.317 1115.93 322.075 1073.13 284.655 1042.68C265.939 1027.45 249.415 1015.3 237.569 1006.96C231.645 1002.79 226.89 999.567 223.613 997.388C221.975 996.299 220.707 995.469 219.847 994.912C219.417 994.633 219.089 994.422 218.868 994.281C218.757 994.21 218.674 994.157 218.617 994.121C218.589 994.103 218.568 994.089 218.553 994.08C218.546 994.076 218.54 994.072 218.537 994.07C218.533 994.067 218.531 994.066 217.728 995.333Z" fill="white"/>
</g>
<defs>
<filter id="filter0_d_16_5" x="0.499146" y="0.221786" width="464.871" height="1512.78" filterUnits="userSpaceOnUse" color-interpolation-filters="sRGB">
<feFlood flood-opacity="0" result="BackgroundImageFix"/>
<feColorMatrix in="SourceAlpha" type="matrix" values="0 0 0 0 0 0 0 0 0 0 0 0 0 0 0 0 0 0 127 0" result="hardAlpha"/>
<feOffset dy="6"/>
<feGaussianBlur stdDeviation="3"/>
<feComposite in2="hardAlpha" operator="out"/>
<feColorMatrix type="matrix" values="0 0 0 0 0 0 0 0 0 0 0 0 0 0 0 0 0 0 0.25 0"/>
<feBlend mode="normal" in2="BackgroundImageFix" result="effect1_dropShadow_16_5"/>
<feBlend mode="normal" in="SourceGraphic" in2="effect1_dropShadow_16_5" result="shape"/>
</filter>
</defs>
</svg>
